<?xml version="1.0" encoding="utf-8"?>
<!-- Generator: Adobe Illustrator 21.1.0, SVG Export Plug-In . SVG Version: 6.00 Build 0)  -->
<svg version="1.1" id="Layer_1" xmlns="http://www.w3.org/2000/svg" xmlns:xlink="http://www.w3.org/1999/xlink" x="0px" y="0px"
	 viewBox="0 0 400 150" style="enable-background:new 0 0 400 150;" xml:space="preserve">
<style type="text/css">
	.st0{fill:#5B8ADA;}
	.st1{fill:#4B4D4F;}
</style>
<g>
	<path class="st0" d="M76.5,13.6C42.5,13.6,15,41.2,15,75.1s27.6,61.5,61.5,61.5s61.5-27.6,61.5-61.5S110.4,13.6,76.5,13.6z
		 M125.4,52.1h-17.1C104.4,41,97.8,30.9,88.8,22.5C105,26.3,118.4,37.4,125.4,52.1z M130.5,75.1c0,5.4-0.8,10.6-2.3,15.5h-17.8
		c1.2-5.1,1.8-10.3,1.8-15.5c0-5.3-0.6-10.5-1.8-15.5h17.8C129.7,64.5,130.5,69.7,130.5,75.1z M100.4,52.1H80.2V24.8
		C89.3,32.3,96.2,41.7,100.4,52.1z M80.2,125.4V98.1h20.2C96.2,108.5,89.3,117.9,80.2,125.4z M80.2,90.7V59.6h22.7
		c1.3,5.1,2,10.3,2,15.5c0,5.3-0.7,10.5-2,15.5H80.2z M22.4,75.1c0-28.6,22.3-52,50.4-53.9V129C44.6,127.1,22.4,103.7,22.4,75.1z
		 M88.8,127.7c8.9-8.4,15.6-18.6,19.5-29.7h17.1C118.4,112.8,105,123.9,88.8,127.7z"/>
	<g>
		<g>
			<path class="st1" d="M206.4,108.5L200,89.4h-26.4l-6.2,19.1h-11.6L179.9,38h14.4l24.1,70.5H206.4z M187.1,48.5h-0.5l-10.2,31.1
				h20.8L187.1,48.5z"/>
			<path class="st1" d="M241.9,108.5c-7.6,0-11.6-4.2-11.6-11.4V64.9h-8.2v-9h4.4c3.6,0,4.9-1.5,4.9-5.2v-9.2h9.9V56h11v9h-11v34.6
				h10.2v9H241.9z"/>
			<path class="st1" d="M275.5,108.5c-7.5,0-11.2-4.1-11.2-10.9V33.7h11v65.8h7.3v9H275.5z"/>
			<path class="st1" d="M331.6,108.5c-5.8,0-8.8-3.6-9.5-8.8h-0.5c-2,6.6-7.7,10-15.4,10c-10.8,0-17-6.2-17-15.7
				c0-10.4,7.8-15.8,22.4-15.8h9.5v-4.4c0-6.4-3.4-10.1-10.8-10.1c-6.2,0-9.9,3-12.5,7.2l-6.6-6c3.4-5.9,9.6-10.2,19.8-10.2
				c13.5,0,21.1,6.7,21.1,18.4v26.4h5.6v9H331.6z M321.2,92.9v-7.6h-9.3c-7.7,0-11.4,2.5-11.4,7.1v1.8c0,4.6,3.4,7.1,8.9,7.1
				C316.1,101.3,321.2,98.1,321.2,92.9z"/>
			<path class="st1" d="M343.9,99.8l7.1-6.5c3.8,4.7,8.6,7.5,14.9,7.5c6.4,0,9.6-2.6,9.6-7.1c0-3.3-2-5.9-7.5-6.6l-4.9-0.6
				c-10.7-1.3-17.3-6-17.3-15.7c0-10.2,8-16.2,19.5-16.2c9.5,0,14.9,3.1,19.6,8.4l-6.8,6.5c-2.7-3.2-7.2-6-12.8-6
				c-6.1,0-8.9,2.6-8.9,6.6c0,4,2.5,5.9,8.1,6.8l4.9,0.6c11.5,1.7,16.7,6.8,16.7,15.3c0,10.1-8.2,16.9-20.8,16.9
				C355.4,109.7,348.9,106,343.9,99.8z"/>
		</g>
	</g>
</g>
</svg>
